<svg version="1.0" xmlns="http://www.w3.org/2000/svg" viewBox="0 0 340.000000 250.000000" preserveAspectRatio="xMidYMid meet" color-interpolation-filters="sRGB" style="margin: 8px;">
  <g fill="#2d9de2">
    <g transform="translate(0,1)">
      <svg x="0" y="0" width="60" height="40">
        <svg xmlns="http://www.w3.org/2000/svg" viewBox="0 0 500 340">
          <g>
            <g>
              <g>
                <path d="M0 202.09c0 77.28 62.88 140.16 140.16 140.16h127l-89.76-89.77q-4.9-4.9-9.35-10.21c-1-1.21-1.9-2.47-2.87-3.7-1.87-2.35-3.72-4.68-5.44-7.12-1.07-1.51-2-3.07-3-4.62-1.45-2.23-2.93-4.45-4.26-6.74-1-1.69-1.86-3.41-2.77-5.12q-1.81-3.3-3.46-6.69c-.84-1.8-1.62-3.63-2.4-5.46-1-2.25-1.92-4.48-2.77-6.75-.71-1.89-1.35-3.79-2-5.72q-2.1-6.27-3.65-12.71t-2.6-12.92q-.56-3.5-.93-7-.34-3-.58-6-.24-3.56-.32-7.11-.1-3-.1-6c0-2.42.14-4.81.28-7.23.12-2 .2-3.94.38-5.9.24-2.46.59-4.92.93-7.37.27-1.91.49-3.8.84-5.71.45-2.56 1-5.09 1.63-7.63.4-1.76.75-3.54 1.21-5.3.75-2.79 1.65-5.53 2.53-8.28.5-1.49.9-3 1.42-4.46 1.35-3.72 2.86-7.41 4.5-11 .2-.46.35-.94.57-1.4q2.76-6 6-11.86c-3.67-.29-7.34-.44-11-.43C62.88 61.93 0 124.8 0 202.09M207.26 58.13c1.45.68 2.84 1.41 4.26 2.11q5.92 3 11.59 6.41c2.26 1.41 4.5 2.84 6.69 4.36 1.36.91 2.73 1.86 4.08 2.83 2.22 1.63 4.37 3.34 6.51 5.07 1.16 1 2.36 1.89 3.51 2.85q3.79 3.31 7.39 6.87c.62.6 1.28 1.16 1.9 1.78 2.95 3 5.79 6.12 8.49 9.35.79.91 1.51 1.9 2.25 2.84 1.92 2.36 3.76 4.74 5.51 7.21.92 1.28 1.79 2.62 2.68 3.92A155.73 155.73 0 0 1 288 144.06c.55 1.39 1.12 2.77 1.64 4.19 1.18 3.27 2.23 6.6 3.18 10 .24.77.52 1.53.73 2.32 1.13 4.16 2.07 8.41 2.86 12.71.21 1.16.33 2.34.52 3.51.42 2.53.87 5.06 1.15 7.64.44-.71.93-1.37 1.39-2.06l1.27-1.9c1.85-2.68 3.79-5.31 5.87-7.84l.47-.53c2-2.36 4-4.64 6.2-6.82l1.58-1.6c2.3-2.25 4.67-4.45 7.16-6.51.38-.33.79-.62 1.19-.93 2.24-1.83 4.55-3.54 6.92-5.2.58-.4 1.14-.8 1.73-1.18 2.67-1.8 5.43-3.48 8.25-5l1.76-.91q3.82-2 7.78-3.75c.54-.24 1.06-.5 1.61-.72 3-1.27 6.09-2.39 9.23-3.39l2.15-.65c2.9-.87 5.87-1.64 8.87-2.29.39-.07.76-.18 1.15-.26 3.29-.67 6.63-1.16 10-1.54l2.39-.24c3.49-.32 7-.5 10.49-.52a114.66 114.66 0 0 1 13.86.92c2.85.33 5.68.79 8.51 1.35.8.17 1.6.28 2.39.47 3.17.71 6.32 1.51 9.44 2.49A140.11 140.11 0 0 0 183.1 49.16c4.12 1.14 8.17 2.48 12.14 3.94 1.13.42 2.21.91 3.32 1.35 2.95 1.15 5.85 2.36 8.7 3.68"></path>
              </g>
              <path d="M280.33 202.09c0-4.19-.2-8.32-.57-12.41-.12-1.41-.36-2.74-.53-4.11-.31-2.7-.61-5.4-1.07-8-.28-1.61-.7-3.15-1-4.74-.51-2.36-1-4.74-1.59-7.07-.45-1.67-1-3.29-1.53-4.92-.66-2.18-1.29-4.39-2.07-6.53-.62-1.65-1.33-3.27-2-4.92-.83-2-1.62-4.07-2.53-6.08-.78-1.63-1.65-3.22-2.46-4.83-1-1.91-1.93-3.83-3-5.69-.9-1.6-1.89-3.12-2.86-4.67-1.13-1.8-2.21-3.6-3.39-5.34-1.06-1.52-2.18-3-3.29-4.46-1.25-1.65-2.48-3.34-3.8-4.94-1.18-1.45-2.43-2.82-3.65-4.22-1.38-1.55-2.74-3.09-4.18-4.57s-2.67-2.64-4-3.94-3-2.82-4.53-4.17c-1.4-1.25-2.9-2.43-4.37-3.61s-3.21-2.55-4.85-3.77-3.12-2.2-4.71-3.25-3.43-2.28-5.19-3.36-3.3-1.94-5-2.85q-5.22-2.93-10.72-5.35a134.91 134.91 0 0 0-23-7.95l-3.21-.74c-.59 1-1.21 1.88-1.77 2.82a138.39 138.39 0 0 0-18.26 50.4c-.33 2.06-.55 4.13-.78 6.2-.19 1.85-.42 3.71-.54 5.56-.15 2.08-.19 4.15-.24 6.23 0 1.86-.1 3.71-.07 5.55 0 2.11.16 4.18.29 6.26.11 1.84.2 3.68.38 5.51.2 2.08.52 4.16.83 6.24.25 1.82.49 3.63.83 5.43.38 2.08.88 4.15 1.38 6.21.4 1.76.77 3.53 1.26 5.29.56 2.08 1.27 4.12 1.91 6.19.57 1.68 1.07 3.41 1.69 5.1.76 2.05 1.66 4.08 2.5 6.11.71 1.62 1.33 3.27 2.08 4.88 1 2.06 2.07 4.05 3.14 6.06.79 1.52 1.55 3.08 2.39 4.57 1.21 2.08 2.57 4.08 3.88 6.12.88 1.36 1.69 2.75 2.63 4.09 1.54 2.2 3.23 4.33 4.92 6.45.84 1.08 1.64 2.21 2.53 3.28 2.64 3.14 5.43 6.21 8.39 9.17L280.31 329V202zm116.79 28c.89-1.05 1.68-2.17 2.53-3.23 1.69-2.16 3.38-4.32 5-6.54.93-1.37 1.76-2.77 2.67-4.15 1.31-2.05 2.67-4.1 3.87-6.21.87-1.52 1.64-3.1 2.46-4.64 1.08-2.05 2.18-4.12 3.16-6.23.75-1.64 1.41-3.3 2.11-5 .89-2.11 1.76-4.2 2.53-6.34.62-1.72 1.17-3.48 1.73-5.23.68-2.15 1.34-4.3 1.91-6.49a154.16 154.16 0 0 0 3.45-17.55c.14-1.05.22-2.13.33-3.2-.63-.24-1.25-.52-1.89-.73-3-1-6.11-1.93-9.23-2.69a65.98 65.98 0 0 0-3.38-.77q-3.18-.62-6.37-1c-1-.14-2-.31-3-.43a99.3 99.3 0 0 0-9.44-.49A96.63 96.63 0 0 0 299 245.73V329l89.76-89.77c2.94-3 5.71-6 8.35-9.16" fill="#7ac3f4"></path>
              <path d="M492 245.73A96.64 96.64 0 0 0 446.69 164v.11c-.07.48-.18.94-.26 1.42q-1 6-2.38 11.89c-.35 1.52-.83 3-1.24 4.53-.77 2.85-1.57 5.69-2.5 8.5-.56 1.69-1.21 3.35-1.83 5q-2.38 6.45-5.34 12.65-1.73 3.67-3.65 7.24-3.25 6.12-7.07 11.88c-1 1.46-1.89 2.94-2.9 4.38-1.76 2.48-3.63 4.9-5.54 7.31-.93 1.15-1.8 2.34-2.74 3.48-2.93 3.47-6 6.86-9.22 10.1l-89.77 89.77h83.3A96.63 96.63 0 0 0 492 245.73" fill="#2d9de2"></path>
            </g>
          </g>
        </svg>
      </svg>
    </g>
    <g transform="translate(67,0)">
      <path transform="translate(0,40.72)" d="M8.80-27.20L11.64-27.20C11.76-27.20 11.84-27.28 11.84-27.40L11.84-27.88C11.84-28 11.76-28.08 11.64-28.08L1.44-28.08C1.32-28.08 1.24-28 1.24-27.88L1.24-27.40C1.24-27.28 1.32-27.20 1.44-27.20L4.24-27.20L4.24-9.52C4.24-1.72 7.48 1.12 14.12 1.12C18.68 1.12 21.72-1.88 21.72-7.60L21.72-27.20L24.56-27.20C24.68-27.20 24.76-27.28 24.76-27.40L24.76-27.88C24.76-28 24.68-28.08 24.56-28.08L18.08-28.08C17.96-28.08 17.88-28 17.88-27.88L17.88-27.40C17.88-27.28 17.96-27.20 18.08-27.20L20.88-27.20L20.88-7.60C20.88-2.60 18.20 0.20 14.24 0.20C11.68 0.20 10.12-1.16 9.40-3.20C8.88-4.72 8.80-6.84 8.80-9.44ZM34.28 0.40C34.40 0.40 34.48 0.32 34.48 0.20L34.48-0.28C34.48-0.40 34.40-0.48 34.28-0.48L32.44-0.48L32.44-16.44C32.44-16.56 32.36-16.64 32.24-16.64L26.96-16.64C26.84-16.64 26.76-16.56 26.76-16.44L26.76-15.96C26.76-15.88 26.84-15.80 26.96-15.80L28.88-15.80L28.88-0.48L26.96-0.48C26.84-0.48 26.76-0.40 26.76-0.28L26.76 0.20C26.76 0.32 26.84 0.40 26.96 0.40ZM33.20-26C33.20-27.48 32.08-28.68 30.64-28.68C29.16-28.68 28.04-27.48 28.04-26C28.04-24.56 29.16-23.40 30.64-23.40C32.08-23.40 33.20-24.56 33.20-26ZM52.68 0.40C52.80 0.40 52.88 0.32 52.88 0.20L52.88-0.28C52.88-0.40 52.80-0.48 52.68-0.48L50.84-0.48L50.84-10.28C50.84-14.52 48.68-17 45.12-17C43.76-17 42.32-16.40 41.48-14.80L41.48-28.52C41.48-28.64 41.40-28.72 41.28-28.72L36.04-28.72C35.92-28.72 35.84-28.64 35.84-28.52L35.84-28.04C35.84-27.92 35.92-27.84 36.04-27.84L37.92-27.84L37.92-0.48L36.04-0.48C35.92-0.48 35.84-0.40 35.84-0.28L35.84 0.20C35.84 0.32 35.92 0.40 36.04 0.40L43.36 0.40C43.48 0.40 43.56 0.32 43.56 0.20L43.56-0.28C43.56-0.40 43.48-0.48 43.36-0.48L41.48-0.48L41.48-12.68C42.08-14.76 43.16-16.12 45.12-16.12C46.16-16.12 47.28-15 47.28-12.36L47.28-0.48L45.40-0.48C45.28-0.48 45.20-0.40 45.20-0.28L45.20 0.20C45.20 0.32 45.28 0.40 45.40 0.40ZM68.04-1.40C67.92-1.44 67.80-1.40 67.76-1.28C67.64-0.96 67.28-0.56 66.84-0.56C66.48-0.56 66.24-0.88 66.24-1.68L66.24-9.76C66.24-14.76 64.12-17.04 60.56-17.04C57.84-17.04 56.12-15.12 56.12-13.60C56.12-12.64 56.56-11.60 57.72-11.60C58.96-11.60 59.44-12.40 59.44-13.20C59.44-13.60 59.36-13.84 59.28-14.08C59.20-14.28 59.16-14.48 59.16-14.76C59.16-15.88 59.80-16.16 60.56-16.16C61.68-16.16 62.68-15.68 62.68-12.68L62.68-9.72C62.68-9.12 61.20-8.96 59.60-8.80C59.48-8.80 59.28-8.76 59.16-8.76C57.84-8.60 54.56-7.88 54.56-3.60C54.56-0.36 57.08 0.72 59.40 0.72C61.00 0.72 62.32-0.12 62.96-1.44C63.36-0.16 64.48 0.72 65.80 0.72C67.20 0.72 68.16-0.24 68.32-1.12C68.36-1.24 68.24-1.36 68.12-1.36ZM62.68-3.56C62.68-1.92 61.56-0.32 60.00-0.32C58.80-0.32 58.08-1.04 58.08-3.60C58.08-7.04 58.84-7.64 59.92-7.88C60.16-7.96 60.52-8 60.84-8.04C61.44-8.12 62.12-8.24 62.68-8.52ZM80.96-13.84C80.96-15.64 79.72-17 77.88-17C76.64-17 75.60-16.36 74.88-14.92L74.88-16.44C74.88-16.56 74.80-16.64 74.68-16.64L69.44-16.64C69.36-16.64 69.28-16.56 69.28-16.44L69.28-15.96C69.28-15.88 69.36-15.80 69.44-15.80L71.28-15.80L71.28-0.48L69.44-0.48C69.36-0.48 69.28-0.40 69.28-0.28L69.28 0.20C69.28 0.32 69.36 0.40 69.44 0.40L76.72 0.40C76.84 0.40 76.92 0.32 76.92 0.20L76.92-0.28C76.92-0.40 76.84-0.48 76.72-0.48L74.88-0.48L74.88-12.44C75.52-15.12 76.28-15.80 77.00-15.80C77.40-15.80 77.72-15.44 77.72-14.84C77.72-14.56 77.64-14.32 77.56-14.20C77.40-13.92 77.28-13.64 77.28-13.12C77.28-12.24 77.92-11.48 79.08-11.48C80.08-11.48 80.96-12.40 80.96-13.84ZM98.84 0.40C98.96 0.40 99.04 0.32 99.04 0.20L99.04-0.28C99.04-0.40 98.96-0.48 98.84-0.48L97.00-0.48L97.00-16.44C97.00-16.56 96.92-16.64 96.80-16.64L91.60-16.64C91.48-16.64 91.40-16.56 91.40-16.44L91.40-15.96C91.40-15.88 91.48-15.80 91.60-15.80L93.44-15.80L93.44-3.56C92.84-1.48 91.76-0.12 89.80-0.12C88.72-0.12 87.64-1.24 87.64-3.92L87.64-16.44C87.64-16.56 87.56-16.64 87.44-16.64L82.16-16.64C82.04-16.64 81.96-16.56 81.96-16.44L81.96-15.96C81.96-15.88 82.04-15.80 82.16-15.80L84.08-15.80L84.08-5.72C84.08-1.44 86.28 0.72 89.80 0.72C91.16 0.72 92.60 0.12 93.44-1.48L93.44 0.20C93.44 0.32 93.52 0.40 93.64 0.40Z"></path>
    </g>
  </g>
</svg>
